<svg xmlns="http://www.w3.org/2000/svg" xmlns:xlink="http://www.w3.org/1999/xlink" version="1.1" id="Layer_1" x="0px" y="0px" viewBox="0 0 80 80" style="enable-background:new 0 0 80 80;" xml:space="preserve">
<g>
	<g>
		<path style="fill:#FFEEA3;" d="M20,77.5c-4.1,0-7.5-3.4-7.5-7.5V16.5h49v11.7l0.7-0.3c2-0.9,3.9-1.4,5.6-1.4c2,0,3.8,0.8,5.3,2.3    c4.4,4.4,1.6,17.9-0.4,25.6c-1.1,4.2-4.9,7.1-9.2,7.1h-2V70c0,4.1-3.4,7.5-7.5,7.5H20z M67.9,31.5c-2.2,0-4.6,1.6-6.2,2.9    l-0.2,0.2v21.9l0.6-0.1c3.3-0.4,5.4-1.9,6-4.3c3.3-12.2,2.5-18.5,1.6-19.6C68.8,31.6,68.3,31.5,67.9,31.5z"></path>
	</g>
	<g>
		<path style="fill:#BA9B48;" d="M61,17v10.4V29l1.4-0.7c1.9-0.9,3.7-1.4,5.4-1.4c1.8,0,3.5,0.7,4.9,2.2c3.1,3.1,2.9,12.2-0.6,25.1    c-1.1,4-4.7,6.7-8.7,6.7H62h-1v1v8c0,3.9-3.1,7-7,7H20c-3.9,0-7-3.1-7-7V17H61 M61,57l1.1-0.1c4.4-0.5,5.9-2.9,6.4-4.7    c3.3-11.9,2.6-18.6,1.5-20.1l0,0l0,0c-0.9-0.9-1.6-1-2.1-1c-1.9,0-4.1,1-6.5,3L61,34.3v0.5v21.1V57 M62,16H12v54c0,4.4,3.6,8,8,8    h34c4.4,0,8-3.6,8-8v-8h1.5c4.6,0,8.5-3.1,9.7-7.5c2.3-8.4,4.8-21.5,0.3-26c-1.8-1.8-3.8-2.5-5.6-2.5c0,0,0,0,0,0    c-2.1,0-4.2,0.7-5.8,1.4V16L62,16z M62,55.9V34.8c1.6-1.3,3.8-2.8,5.9-2.8c0.2,0,0.7,0,1.4,0.7c0.7,0.9,1.8,6.7-1.6,19.2    C67.2,53.3,66.1,55.4,62,55.9L62,55.9z"></path>
	</g>
</g>
<g>
	<g>
		<path style="fill:#F5CE85;" d="M13,30v40h48V30H13z M35,48c-1.7,0-3-1.3-3-3s1.3-3,3-3s3,1.3,3,3S36.7,48,35,48z M45,56    c-1.7,0-3-1.3-3-3s1.3-3,3-3s3,1.3,3,3S46.7,56,45,56z M35,64c-1.7,0-3-1.3-3-3s1.3-3,3-3s3,1.3,3,3S36.7,64,35,64z"></path>
	</g>
</g>
<path style="fill:#F7FCFF;" d="M23,64c-0.6,0-1-0.4-1-1V25c0-0.6,0.4-1,1-1s1,0.4,1,1v38C24,63.6,23.6,64,23,64z"></path>
<g>
	<g>
		<path style="fill:#FFFFFF;" d="M43,35.5c-0.4,0-0.8-0.1-1.2-0.2c-1.5-0.4-2.7-1.6-3.1-3c-0.4-1.4-0.2-2.8,0.6-3.9    c0.8-1.1,1.2-2.2,1.2-3.3V24c0-3.6-2.9-6.5-6.5-6.5H17c-3.6,0-6.5-2.9-6.5-6.5s2.9-6.5,6.5-6.5c1.5,0,2.9,0.5,4.1,1.4l0.4,0.3    l0.3-0.4c1.4-2.1,3.7-3.3,6.2-3.3c1.7,0,3.3,0.6,4.7,1.7L33,4.4l0.3-0.3c1.3-1.1,3-1.7,4.7-1.7s3.3,0.6,4.7,1.7L43,4.4l0.3-0.3    c1.3-1.1,3-1.7,4.7-1.7c2.1,0,4.2,0.9,5.6,2.5l0.3,0.3l0.3-0.2C55.1,4.7,56,4.5,57,4.5c3.6,0,6.5,2.9,6.5,6.5s-2.9,6.5-6.5,6.5h-5    c-3.6,0-6.5,2.9-6.5,6.5v1.2c0,1.1,0.4,2.1,1.2,3.2c0.6,0.8,0.8,1.7,0.8,2.6C47.5,33.5,45.5,35.5,43,35.5z"></path>
	</g>
	<g>
		<path style="fill:#788B9C;" d="M48,3c2,0,3.9,0.9,5.2,2.4l0.5,0.6l0.7-0.3C55.2,5.2,56.1,5,57,5c3.3,0,6,2.7,6,6s-2.7,6-6,6h-5    c-3.9,0-7,3.1-7,7v1.2c0,1.2,0.4,2.3,1.2,3.5c0.5,0.7,0.8,1.5,0.8,2.3c0,2.2-1.8,4-4,4c-0.4,0-0.7,0-1.1-0.1    c-1.3-0.3-2.4-1.4-2.7-2.7c-0.3-1.2-0.1-2.5,0.6-3.5c0.8-1.2,1.3-2.4,1.3-3.6V24c0-3.9-3.1-7-7-7H17c-3.3,0-6-2.7-6-6s2.7-6,6-6    c1.4,0,2.7,0.5,3.7,1.3L21.6,7l0.6-0.9C23.5,4.2,25.7,3,28,3c1.6,0,3.1,0.5,4.4,1.5L33,5l0.6-0.5C34.9,3.5,36.4,3,38,3    s3.1,0.5,4.4,1.5L43,5l0.6-0.5C44.9,3.5,46.4,3,48,3 M48,2c-1.9,0-3.6,0.7-5,1.8C41.6,2.7,39.9,2,38,2s-3.6,0.7-5,1.8    C31.6,2.7,29.9,2,28,2c-2.8,0-5.2,1.4-6.6,3.5C20.2,4.6,18.7,4,17,4c-3.9,0-7,3.1-7,7s3.1,7,7,7h17c3.3,0,6,2.7,6,6v1.2    c0,1.1-0.4,2.1-1.1,3c-0.8,1.2-1.2,2.7-0.7,4.3c0.5,1.6,1.8,3,3.5,3.4c0.5,0.1,0.9,0.2,1.3,0.2c2.8,0,5-2.2,5-5    c0-1.1-0.4-2.1-0.9-2.9c-0.6-0.9-1.1-1.8-1.1-2.9V24c0-3.3,2.7-6,6-6h5c3.9,0,7-3.1,7-7s-3.1-7-7-7c-1.1,0-2.1,0.3-3,0.7    C52.5,3,50.4,2,48,2L48,2z"></path>
	</g>
</g>
</svg>